<svg xmlns="http://www.w3.org/2000/svg" width="8.436" height="13.369" viewBox="0 0 8.436 13.369">
  <path id="Path_628_-_Outline" data-name="Path 628 - Outline" d="M.913,7.936a1.4,1.4,0,0,1-.461-.081A1.384,1.384,0,0,1-.483,6.7,1.573,1.573,0,0,1,0,5.365C1.676,3.6,3.3,1.879,5.1-.027A1.406,1.406,0,0,1,6.177-.5a1.376,1.376,0,0,1,1.071.456Q8.7,1.5,10.157,3.032l1.478,1.561c.272.287.553.584.828.879A1.445,1.445,0,0,1,12.8,6.919a1.394,1.394,0,0,1-1.337,1.013,1.4,1.4,0,0,1-1.037-.487L8.557,5.464c-.778-.823-1.58-1.672-2.373-2.514-.438.468-.882.936-1.313,1.392l-.829.877c-.7.745-1.432,1.515-2.15,2.271A1.336,1.336,0,0,1,.913,7.936Z" transform="translate(7.936 0.5) rotate(90)" fill="#fff"/>
</svg>
